<?xml version="1.0" encoding="UTF-8" standalone="no"?>
<!DOCTYPE svg PUBLIC "-//W3C//DTD SVG 1.1//EN"
 "http://www.w3.org/Graphics/SVG/1.1/DTD/svg11.dtd">
<!-- Generated by graphviz version 2.43.0 (0)
 -->
<!-- Title: agent_architecture Pages: 1 -->
<svg width="452pt" height="538pt"
 viewBox="0.00 0.00 451.50 538.00" xmlns="http://www.w3.org/2000/svg" xmlns:xlink="http://www.w3.org/1999/xlink">
<g id="graph0" class="graph" transform="scale(1 1) rotate(0) translate(4 534)">
<title>agent_architecture</title>
<g id="clust1" class="cluster">
<title>cluster_host</title>
<path fill="transparent" stroke="#888888" stroke-dasharray="5,2" d="M20,-77C20,-77 308,-77 308,-77 314,-77 320,-83 320,-89 320,-89 320,-451 320,-451 320,-457 314,-463 308,-463 308,-463 20,-463 20,-463 14,-463 8,-457 8,-451 8,-451 8,-89 8,-89 8,-83 14,-77 20,-77"/>
<text text-anchor="middle" x="164" y="-449.4" font-family="Helvetica,sans-Serif" font-size="12.00">Workstation / Docker Host</text>
</g>
<g id="clust2" class="cluster">
<title>cluster_containers</title>
<path fill="#fafafa" stroke="#bbbbbb" d="M36,-180C36,-180 292,-180 292,-180 298,-180 304,-186 304,-192 304,-192 304,-248 304,-248 304,-254 298,-260 292,-260 292,-260 36,-260 36,-260 30,-260 24,-254 24,-248 24,-248 24,-192 24,-192 24,-186 30,-180 36,-180"/>
<text text-anchor="middle" x="164" y="-247.2" font-family="Helvetica,sans-Serif" font-size="11.00">Per&#45;project containers</text>
</g>
<!-- browser -->
<g id="node1" class="node">
<title>browser</title>
<path fill="#eaeaea" stroke="#333333" stroke-width="1.2" d="M183,-530C183,-530 145,-530 145,-530 139,-530 133,-524 133,-518 133,-518 133,-506 133,-506 133,-500 139,-494 145,-494 145,-494 183,-494 183,-494 189,-494 195,-500 195,-506 195,-506 195,-518 195,-518 195,-524 189,-530 183,-530"/>
<text text-anchor="middle" x="164" y="-509.2" font-family="Helvetica,sans-Serif" font-size="11.00">Browser</text>
</g>
<!-- mgr -->
<g id="node2" class="node">
<title>mgr</title>
<path fill="#f7f7f7" stroke="#333333" stroke-width="1.2" d="M204.5,-426C204.5,-426 123.5,-426 123.5,-426 117.5,-426 111.5,-420 111.5,-414 111.5,-414 111.5,-402 111.5,-402 111.5,-396 117.5,-390 123.5,-390 123.5,-390 204.5,-390 204.5,-390 210.5,-390 216.5,-396 216.5,-402 216.5,-402 216.5,-414 216.5,-414 216.5,-420 210.5,-426 204.5,-426"/>
<text text-anchor="middle" x="164" y="-405.2" font-family="Helvetica,sans-Serif" font-size="11.00">claude&#45;manager</text>
</g>
<!-- browser&#45;&gt;mgr -->
<g id="edge1" class="edge">
<title>browser&#45;&gt;mgr</title>
<path fill="none" stroke="#444444" stroke-width="1.1" d="M164,-493.7C164,-477.33 164,-452.59 164,-434.07"/>
<polygon fill="#444444" stroke="#444444" stroke-width="1.1" points="166.8,-434.05 164,-426.05 161.2,-434.05 166.8,-434.05"/>
</g>
<!-- socket -->
<g id="node3" class="node">
<title>socket</title>
<path fill="#eaeaea" stroke="#333333" stroke-width="1.2" d="M214.5,-341C214.5,-343.21 191.87,-345 164,-345 136.13,-345 113.5,-343.21 113.5,-341 113.5,-341 113.5,-305 113.5,-305 113.5,-302.79 136.13,-301 164,-301 191.87,-301 214.5,-302.79 214.5,-305 214.5,-305 214.5,-341 214.5,-341"/>
<path fill="none" stroke="#333333" stroke-width="1.2" d="M214.5,-341C214.5,-338.79 191.87,-337 164,-337 136.13,-337 113.5,-338.79 113.5,-341"/>
<text text-anchor="middle" x="164" y="-326.2" font-family="Helvetica,sans-Serif" font-size="11.00">Docker socket</text>
<text text-anchor="middle" x="164" y="-314.2" font-family="Helvetica,sans-Serif" font-size="11.00">(manager only)</text>
</g>
<!-- mgr&#45;&gt;socket -->
<g id="edge2" class="edge">
<title>mgr&#45;&gt;socket</title>
<path fill="none" stroke="#444444" stroke-width="1.1" d="M164,-389.8C164,-379.23 164,-365.41 164,-353.17"/>
<polygon fill="#444444" stroke="#444444" stroke-width="1.1" points="166.8,-353 164,-345 161.2,-353 166.8,-353"/>
</g>
<!-- a -->
<g id="node5" class="node">
<title>a</title>
<path fill="#f7f7f7" stroke="#333333" stroke-width="1.2" d="M185,-228C185,-228 143,-228 143,-228 137,-228 131,-222 131,-216 131,-216 131,-204 131,-204 131,-198 137,-192 143,-192 143,-192 185,-192 185,-192 191,-192 197,-198 197,-204 197,-204 197,-216 197,-216 197,-222 191,-228 185,-228"/>
<text text-anchor="middle" x="164" y="-207.2" font-family="Helvetica,sans-Serif" font-size="11.00">Project A</text>
</g>
<!-- socket&#45;&gt;a -->
<g id="edge3" class="edge">
<title>socket&#45;&gt;a</title>
<path fill="none" stroke="#444444" stroke-width="1.1" d="M164,-300.86C164,-291.43 164,-279.81 164,-268.1"/>
<polygon fill="#444444" stroke="#444444" stroke-width="1.1" points="166.8,-268 164,-260 161.2,-268 166.8,-268"/>
<text text-anchor="middle" x="182.5" y="-271" font-family="Helvetica,sans-Serif" font-size="10.00">creates</text>
</g>
<!-- proxy -->
<g id="node4" class="node">
<title>proxy</title>
<path fill="#fff4e6" stroke="#c77a1b" stroke-width="1.2" d="M202.5,-137C202.5,-137 125.5,-137 125.5,-137 119.5,-137 113.5,-131 113.5,-125 113.5,-125 113.5,-105 113.5,-105 113.5,-99 119.5,-93 125.5,-93 125.5,-93 202.5,-93 202.5,-93 208.5,-93 214.5,-99 214.5,-105 214.5,-105 214.5,-125 214.5,-125 214.5,-131 208.5,-137 202.5,-137"/>
<text text-anchor="middle" x="164" y="-124.2" font-family="Helvetica,sans-Serif" font-size="11.00">Egress proxy</text>
<text text-anchor="middle" x="164" y="-112.2" font-family="Helvetica,sans-Serif" font-size="11.00">deny&#45;by&#45;default</text>
<text text-anchor="middle" x="164" y="-100.2" font-family="Helvetica,sans-Serif" font-size="11.00">approval flow</text>
</g>
<!-- internet -->
<g id="node8" class="node">
<title>internet</title>
<path fill="#eaf5ea" stroke="#4e8e4e" stroke-width="1.2" d="M200,-36C200,-36 128,-36 128,-36 122,-36 116,-30 116,-24 116,-24 116,-12 116,-12 116,-6 122,0 128,0 128,0 200,0 200,0 206,0 212,-6 212,-12 212,-12 212,-24 212,-24 212,-30 206,-36 200,-36"/>
<text text-anchor="middle" x="164" y="-15.2" font-family="Helvetica,sans-Serif" font-size="11.00">Public internet</text>
</g>
<!-- proxy&#45;&gt;internet -->
<g id="edge7" class="edge">
<title>proxy&#45;&gt;internet</title>
<path fill="none" stroke="#444444" stroke-width="1.1" d="M164,-92.92C164,-78.66 164,-59.75 164,-44.62"/>
<polygon fill="#444444" stroke="#444444" stroke-width="1.1" points="166.8,-44.22 164,-36.22 161.2,-44.22 166.8,-44.22"/>
<text text-anchor="middle" x="199" y="-61" font-family="Helvetica,sans-Serif" font-size="10.00">approved only</text>
</g>
<!-- a&#45;&gt;proxy -->
<g id="edge4" class="edge">
<title>a&#45;&gt;proxy</title>
<path fill="none" stroke="#444444" stroke-width="1.1" d="M164,-191.94C164,-178.93 164,-160.7 164,-145.37"/>
<polygon fill="#444444" stroke="#444444" stroke-width="1.1" points="166.8,-145.19 164,-137.19 161.2,-145.19 166.8,-145.19"/>
</g>
<!-- b -->
<g id="node6" class="node">
<title>b</title>
<path fill="#f7f7f7" stroke="#333333" stroke-width="1.2" d="M280,-228C280,-228 238,-228 238,-228 232,-228 226,-222 226,-216 226,-216 226,-204 226,-204 226,-198 232,-192 238,-192 238,-192 280,-192 280,-192 286,-192 292,-198 292,-204 292,-204 292,-216 292,-216 292,-222 286,-228 280,-228"/>
<text text-anchor="middle" x="259" y="-207.2" font-family="Helvetica,sans-Serif" font-size="11.00">Project B</text>
</g>
<!-- b&#45;&gt;proxy -->
<g id="edge5" class="edge">
<title>b&#45;&gt;proxy</title>
<path fill="none" stroke="#444444" stroke-width="1.1" d="M241.58,-191.94C227.55,-178.21 207.58,-158.66 191.42,-142.84"/>
<polygon fill="#444444" stroke="#444444" stroke-width="1.1" points="193.33,-140.79 185.65,-137.19 189.41,-144.79 193.33,-140.79"/>
</g>
<!-- internal -->
<g id="node9" class="node">
<title>internal</title>
<path fill="#fdecec" stroke="#b94a48" stroke-width="1.2" d="M431.5,-133C431.5,-133 348.5,-133 348.5,-133 342.5,-133 336.5,-127 336.5,-121 336.5,-121 336.5,-109 336.5,-109 336.5,-103 342.5,-97 348.5,-97 348.5,-97 431.5,-97 431.5,-97 437.5,-97 443.5,-103 443.5,-109 443.5,-109 443.5,-121 443.5,-121 443.5,-127 437.5,-133 431.5,-133"/>
<text text-anchor="middle" x="390" y="-112.2" font-family="Helvetica,sans-Serif" font-size="11.00">Internal network</text>
</g>
<!-- b&#45;&gt;internal -->
<g id="edge8" class="edge">
<title>b&#45;&gt;internal</title>
<path fill="none" stroke="#b94a48" stroke-width="1.1" stroke-dasharray="5,2" d="M304,-184.79C311.83,-180.13 319.77,-175.1 327,-170 343.01,-158.7 359.79,-144.17 372,-133.02"/>
<text text-anchor="middle" x="361.5" y="-162" font-family="Helvetica,sans-Serif" font-size="10.00" fill="#b94a48">no route</text>
</g>
<!-- c -->
<g id="node7" class="node">
<title>c</title>
<path fill="#f7f7f7" stroke="#333333" stroke-width="1.2" d="M90,-228C90,-228 48,-228 48,-228 42,-228 36,-222 36,-216 36,-216 36,-204 36,-204 36,-198 42,-192 48,-192 48,-192 90,-192 90,-192 96,-192 102,-198 102,-204 102,-204 102,-216 102,-216 102,-222 96,-228 90,-228"/>
<text text-anchor="middle" x="69" y="-207.2" font-family="Helvetica,sans-Serif" font-size="11.00">Project C</text>
</g>
<!-- c&#45;&gt;proxy -->
<g id="edge6" class="edge">
<title>c&#45;&gt;proxy</title>
<path fill="none" stroke="#444444" stroke-width="1.1" d="M86.42,-191.94C100.45,-178.21 120.42,-158.66 136.58,-142.84"/>
<polygon fill="#444444" stroke="#444444" stroke-width="1.1" points="138.59,-144.79 142.35,-137.19 134.67,-140.79 138.59,-144.79"/>
</g>
</g>
</svg>
